<svg xmlns="http://www.w3.org/2000/svg" width="1024" height="1024" viewBox="0 0 1024 1024">
  <rect width="1024" height="1024" rx="180" fill="#0b1018"/>
  <g transform="translate(217.7,221.2) scale(17)">
    <path d="M28.5975 6.0618C28.5759 6.0618 28.2431 5.91391 28.2134 5.88546C27.9816 5.66568 28.0935 4.74867 28.076 4.40411C28.0059 3.00421 28.0342 1.57444 27.9331 0.179949C27.9251 0.0754972 27.9871 -0.023528 27.8294 0.00495877L22.8611 5.0064C22.6792 6.51758 23.0646 8.04773 22.8153 9.53988L17.5115 14.8601C16.8525 14.5305 16.1101 14.3447 15.3245 14.3447C14.9081 14.3447 14.5038 14.3976 14.1184 14.4952C14.1117 14.4966 14.1063 14.4979 14.0996 14.4993C14.0955 14.4993 14.0928 14.5006 14.0888 14.502C13.8651 14.5563 13.6481 14.6295 13.4406 14.7204C11.6552 15.4651 10.398 17.2367 10.398 19.3027C10.398 22.0415 12.6038 24.2621 15.3245 24.2621C18.0451 24.2621 20.251 22.0415 20.251 19.3027C20.251 18.4562 20.0394 17.66 19.6688 16.9627C21.3182 15.3322 22.8395 13.292 24.5374 11.9056C24.8109 11.6832 24.939 11.5869 25.3055 11.5529C26.4563 11.4444 27.7459 11.6696 28.9101 11.519L34.125 6.2734L34.2301 6.0618H28.5975Z" fill="#ffffff"/>
    <path d="M15.1617 3.79044C17.267 3.79044 19.2718 4.22005 21.094 4.99556C21.0388 5.86789 21.0937 6.69359 21.1254 7.29171C21.1466 7.69367 21.1594 8.02078 21.1584 8.30289L19.2003 10.3782C17.9751 9.80013 16.6063 9.47622 15.1617 9.47622C9.92824 9.47626 5.68583 13.7187 5.68579 18.9522C5.68579 24.1856 9.92824 28.4285 15.1617 28.4285C20.3952 28.4285 24.638 24.1857 24.638 18.9522C24.638 18.1018 24.5254 17.2779 24.3154 16.4938C24.4249 16.3643 24.5321 16.2375 24.6368 16.1145C25.3219 15.3103 25.9311 14.6286 26.5268 14.0832C26.8072 14.0785 27.139 14.0913 27.5848 14.1097C28.1043 14.1311 28.8039 14.1586 29.5245 14.0824C30.0426 15.6108 30.3234 17.2487 30.3234 18.9522C30.3234 27.3258 23.5353 34.1139 15.1617 34.1139C6.78812 34.1138 0 27.3258 0 18.9522C1.89218e-05 10.5786 6.78812 3.79046 15.1617 3.79044Z" fill="#8dffc7"/>
  </g>
</svg>
